<svg xmlns="http://www.w3.org/2000/svg" width="782" height="148" viewBox="0 0 782 148" role="img" aria-label="GitHub contributions calendar for evanniko1">
<rect x="0" y="0" width="782" height="148" rx="10" fill="#F7FAF9" />
<rect x="0.5" y="0.5" width="781" height="147" rx="10" fill="#FFFFFF" stroke="#E5EFEA" stroke-width="1"/>
<rect x="0" y="0" width="782" height="4" rx="10" fill="#0EA293" />
<text x="28" y="16" fill="#4C615D" font-family="ui-sans-serif, system-ui, -apple-system, Segoe UI, Roboto, Ubuntu, Cantarell, Noto Sans, Helvetica Neue, Arial" font-size="10" text-rendering="geometricPrecision">Dec</text>
<text x="70" y="16" fill="#4C615D" font-family="ui-sans-serif, system-ui, -apple-system, Segoe UI, Roboto, Ubuntu, Cantarell, Noto Sans, Helvetica Neue, Arial" font-size="10" text-rendering="geometricPrecision">Jan</text>
<text x="126" y="16" fill="#4C615D" font-family="ui-sans-serif, system-ui, -apple-system, Segoe UI, Roboto, Ubuntu, Cantarell, Noto Sans, Helvetica Neue, Arial" font-size="10" text-rendering="geometricPrecision">Feb</text>
<text x="182" y="16" fill="#4C615D" font-family="ui-sans-serif, system-ui, -apple-system, Segoe UI, Roboto, Ubuntu, Cantarell, Noto Sans, Helvetica Neue, Arial" font-size="10" text-rendering="geometricPrecision">Mar</text>
<text x="252" y="16" fill="#4C615D" font-family="ui-sans-serif, system-ui, -apple-system, Segoe UI, Roboto, Ubuntu, Cantarell, Noto Sans, Helvetica Neue, Arial" font-size="10" text-rendering="geometricPrecision">Apr</text>
<text x="308" y="16" fill="#4C615D" font-family="ui-sans-serif, system-ui, -apple-system, Segoe UI, Roboto, Ubuntu, Cantarell, Noto Sans, Helvetica Neue, Arial" font-size="10" text-rendering="geometricPrecision">May</text>
<text x="364" y="16" fill="#4C615D" font-family="ui-sans-serif, system-ui, -apple-system, Segoe UI, Roboto, Ubuntu, Cantarell, Noto Sans, Helvetica Neue, Arial" font-size="10" text-rendering="geometricPrecision">Jun</text>
<text x="434" y="16" fill="#4C615D" font-family="ui-sans-serif, system-ui, -apple-system, Segoe UI, Roboto, Ubuntu, Cantarell, Noto Sans, Helvetica Neue, Arial" font-size="10" text-rendering="geometricPrecision">Jul</text>
<text x="490" y="16" fill="#4C615D" font-family="ui-sans-serif, system-ui, -apple-system, Segoe UI, Roboto, Ubuntu, Cantarell, Noto Sans, Helvetica Neue, Arial" font-size="10" text-rendering="geometricPrecision">Aug</text>
<text x="560" y="16" fill="#4C615D" font-family="ui-sans-serif, system-ui, -apple-system, Segoe UI, Roboto, Ubuntu, Cantarell, Noto Sans, Helvetica Neue, Arial" font-size="10" text-rendering="geometricPrecision">Sep</text>
<text x="616" y="16" fill="#4C615D" font-family="ui-sans-serif, system-ui, -apple-system, Segoe UI, Roboto, Ubuntu, Cantarell, Noto Sans, Helvetica Neue, Arial" font-size="10" text-rendering="geometricPrecision">Oct</text>
<text x="672" y="16" fill="#4C615D" font-family="ui-sans-serif, system-ui, -apple-system, Segoe UI, Roboto, Ubuntu, Cantarell, Noto Sans, Helvetica Neue, Arial" font-size="10" text-rendering="geometricPrecision">Nov</text>
<text x="742" y="16" fill="#4C615D" font-family="ui-sans-serif, system-ui, -apple-system, Segoe UI, Roboto, Ubuntu, Cantarell, Noto Sans, Helvetica Neue, Arial" font-size="10" text-rendering="geometricPrecision">Dec</text>
<text x="8" y="48" fill="#4C615D" font-family="ui-sans-serif, system-ui, -apple-system, Segoe UI, Roboto, Ubuntu, Cantarell, Noto Sans, Helvetica Neue, Arial" font-size="9" text-rendering="geometricPrecision">M</text>
<text x="8" y="76" fill="#4C615D" font-family="ui-sans-serif, system-ui, -apple-system, Segoe UI, Roboto, Ubuntu, Cantarell, Noto Sans, Helvetica Neue, Arial" font-size="9" text-rendering="geometricPrecision">W</text>
<text x="8" y="104" fill="#4C615D" font-family="ui-sans-serif, system-ui, -apple-system, Segoe UI, Roboto, Ubuntu, Cantarell, Noto Sans, Helvetica Neue, Arial" font-size="9" text-rendering="geometricPrecision">F</text>
<g>
<title>2024-12-15: 0 contributions</title>
<rect x="28" y="24" width="12" height="12" rx="3" fill="#DCE7E5" />
</g>
<g>
<title>2024-12-16: 0 contributions</title>
<rect x="28" y="38" width="12" height="12" rx="3" fill="#DCE7E5" />
</g>
<g>
<title>2024-12-17: 0 contributions</title>
<rect x="28" y="52" width="12" height="12" rx="3" fill="#DCE7E5" />
</g>
<g>
<title>2024-12-18: 0 contributions</title>
<rect x="28" y="66" width="12" height="12" rx="3" fill="#DCE7E5" />
</g>
<g>
<title>2024-12-19: 0 contributions</title>
<rect x="28" y="80" width="12" height="12" rx="3" fill="#DCE7E5" />
</g>
<g>
<title>2024-12-20: 0 contributions</title>
<rect x="28" y="94" width="12" height="12" rx="3" fill="#DCE7E5" />
</g>
<g>
<title>2024-12-21: 0 contributions</title>
<rect x="28" y="108" width="12" height="12" rx="3" fill="#DCE7E5" />
</g>
<g>
<title>2024-12-22: 0 contributions</title>
<rect x="42" y="24" width="12" height="12" rx="3" fill="#DCE7E5" />
</g>
<g>
<title>2024-12-23: 0 contributions</title>
<rect x="42" y="38" width="12" height="12" rx="3" fill="#DCE7E5" />
</g>
<g>
<title>2024-12-24: 0 contributions</title>
<rect x="42" y="52" width="12" height="12" rx="3" fill="#DCE7E5" />
</g>
<g>
<title>2024-12-25: 0 contributions</title>
<rect x="42" y="66" width="12" height="12" rx="3" fill="#DCE7E5" />
</g>
<g>
<title>2024-12-26: 0 contributions</title>
<rect x="42" y="80" width="12" height="12" rx="3" fill="#DCE7E5" />
</g>
<g>
<title>2024-12-27: 0 contributions</title>
<rect x="42" y="94" width="12" height="12" rx="3" fill="#DCE7E5" />
</g>
<g>
<title>2024-12-28: 0 contributions</title>
<rect x="42" y="108" width="12" height="12" rx="3" fill="#DCE7E5" />
</g>
<g>
<title>2024-12-29: 0 contributions</title>
<rect x="56" y="24" width="12" height="12" rx="3" fill="#DCE7E5" />
</g>
<g>
<title>2024-12-30: 0 contributions</title>
<rect x="56" y="38" width="12" height="12" rx="3" fill="#DCE7E5" />
</g>
<g>
<title>2024-12-31: 0 contributions</title>
<rect x="56" y="52" width="12" height="12" rx="3" fill="#DCE7E5" />
</g>
<g>
<title>2025-01-01: 0 contributions</title>
<rect x="56" y="66" width="12" height="12" rx="3" fill="#DCE7E5" />
</g>
<g>
<title>2025-01-02: 0 contributions</title>
<rect x="56" y="80" width="12" height="12" rx="3" fill="#DCE7E5" />
</g>
<g>
<title>2025-01-03: 0 contributions</title>
<rect x="56" y="94" width="12" height="12" rx="3" fill="#DCE7E5" />
</g>
<g>
<title>2025-01-04: 0 contributions</title>
<rect x="56" y="108" width="12" height="12" rx="3" fill="#DCE7E5" />
</g>
<g>
<title>2025-01-05: 0 contributions</title>
<rect x="70" y="24" width="12" height="12" rx="3" fill="#DCE7E5" />
</g>
<g>
<title>2025-01-06: 0 contributions</title>
<rect x="70" y="38" width="12" height="12" rx="3" fill="#DCE7E5" />
</g>
<g>
<title>2025-01-07: 0 contributions</title>
<rect x="70" y="52" width="12" height="12" rx="3" fill="#DCE7E5" />
</g>
<g>
<title>2025-01-08: 0 contributions</title>
<rect x="70" y="66" width="12" height="12" rx="3" fill="#DCE7E5" />
</g>
<g>
<title>2025-01-09: 0 contributions</title>
<rect x="70" y="80" width="12" height="12" rx="3" fill="#DCE7E5" />
</g>
<g>
<title>2025-01-10: 0 contributions</title>
<rect x="70" y="94" width="12" height="12" rx="3" fill="#DCE7E5" />
</g>
<g>
<title>2025-01-11: 0 contributions</title>
<rect x="70" y="108" width="12" height="12" rx="3" fill="#DCE7E5" />
</g>
<g>
<title>2025-01-12: 0 contributions</title>
<rect x="84" y="24" width="12" height="12" rx="3" fill="#DCE7E5" />
</g>
<g>
<title>2025-01-13: 0 contributions</title>
<rect x="84" y="38" width="12" height="12" rx="3" fill="#DCE7E5" />
</g>
<g>
<title>2025-01-14: 0 contributions</title>
<rect x="84" y="52" width="12" height="12" rx="3" fill="#DCE7E5" />
</g>
<g>
<title>2025-01-15: 0 contributions</title>
<rect x="84" y="66" width="12" height="12" rx="3" fill="#DCE7E5" />
</g>
<g>
<title>2025-01-16: 0 contributions</title>
<rect x="84" y="80" width="12" height="12" rx="3" fill="#DCE7E5" />
</g>
<g>
<title>2025-01-17: 0 contributions</title>
<rect x="84" y="94" width="12" height="12" rx="3" fill="#DCE7E5" />
</g>
<g>
<title>2025-01-18: 0 contributions</title>
<rect x="84" y="108" width="12" height="12" rx="3" fill="#DCE7E5" />
</g>
<g>
<title>2025-01-19: 0 contributions</title>
<rect x="98" y="24" width="12" height="12" rx="3" fill="#DCE7E5" />
</g>
<g>
<title>2025-01-20: 0 contributions</title>
<rect x="98" y="38" width="12" height="12" rx="3" fill="#DCE7E5" />
</g>
<g>
<title>2025-01-21: 0 contributions</title>
<rect x="98" y="52" width="12" height="12" rx="3" fill="#DCE7E5" />
</g>
<g>
<title>2025-01-22: 0 contributions</title>
<rect x="98" y="66" width="12" height="12" rx="3" fill="#DCE7E5" />
</g>
<g>
<title>2025-01-23: 0 contributions</title>
<rect x="98" y="80" width="12" height="12" rx="3" fill="#DCE7E5" />
</g>
<g>
<title>2025-01-24: 0 contributions</title>
<rect x="98" y="94" width="12" height="12" rx="3" fill="#DCE7E5" />
</g>
<g>
<title>2025-01-25: 0 contributions</title>
<rect x="98" y="108" width="12" height="12" rx="3" fill="#DCE7E5" />
</g>
<g>
<title>2025-01-26: 0 contributions</title>
<rect x="112" y="24" width="12" height="12" rx="3" fill="#DCE7E5" />
</g>
<g>
<title>2025-01-27: 0 contributions</title>
<rect x="112" y="38" width="12" height="12" rx="3" fill="#DCE7E5" />
</g>
<g>
<title>2025-01-28: 0 contributions</title>
<rect x="112" y="52" width="12" height="12" rx="3" fill="#DCE7E5" />
</g>
<g>
<title>2025-01-29: 0 contributions</title>
<rect x="112" y="66" width="12" height="12" rx="3" fill="#DCE7E5" />
</g>
<g>
<title>2025-01-30: 0 contributions</title>
<rect x="112" y="80" width="12" height="12" rx="3" fill="#DCE7E5" />
</g>
<g>
<title>2025-01-31: 0 contributions</title>
<rect x="112" y="94" width="12" height="12" rx="3" fill="#DCE7E5" />
</g>
<g>
<title>2025-02-01: 0 contributions</title>
<rect x="112" y="108" width="12" height="12" rx="3" fill="#DCE7E5" />
</g>
<g>
<title>2025-02-02: 0 contributions</title>
<rect x="126" y="24" width="12" height="12" rx="3" fill="#DCE7E5" />
</g>
<g>
<title>2025-02-03: 0 contributions</title>
<rect x="126" y="38" width="12" height="12" rx="3" fill="#DCE7E5" />
</g>
<g>
<title>2025-02-04: 0 contributions</title>
<rect x="126" y="52" width="12" height="12" rx="3" fill="#DCE7E5" />
</g>
<g>
<title>2025-02-05: 0 contributions</title>
<rect x="126" y="66" width="12" height="12" rx="3" fill="#DCE7E5" />
</g>
<g>
<title>2025-02-06: 0 contributions</title>
<rect x="126" y="80" width="12" height="12" rx="3" fill="#DCE7E5" />
</g>
<g>
<title>2025-02-07: 0 contributions</title>
<rect x="126" y="94" width="12" height="12" rx="3" fill="#DCE7E5" />
</g>
<g>
<title>2025-02-08: 0 contributions</title>
<rect x="126" y="108" width="12" height="12" rx="3" fill="#DCE7E5" />
</g>
<g>
<title>2025-02-09: 0 contributions</title>
<rect x="140" y="24" width="12" height="12" rx="3" fill="#DCE7E5" />
</g>
<g>
<title>2025-02-10: 0 contributions</title>
<rect x="140" y="38" width="12" height="12" rx="3" fill="#DCE7E5" />
</g>
<g>
<title>2025-02-11: 0 contributions</title>
<rect x="140" y="52" width="12" height="12" rx="3" fill="#DCE7E5" />
</g>
<g>
<title>2025-02-12: 0 contributions</title>
<rect x="140" y="66" width="12" height="12" rx="3" fill="#DCE7E5" />
</g>
<g>
<title>2025-02-13: 0 contributions</title>
<rect x="140" y="80" width="12" height="12" rx="3" fill="#DCE7E5" />
</g>
<g>
<title>2025-02-14: 0 contributions</title>
<rect x="140" y="94" width="12" height="12" rx="3" fill="#DCE7E5" />
</g>
<g>
<title>2025-02-15: 0 contributions</title>
<rect x="140" y="108" width="12" height="12" rx="3" fill="#DCE7E5" />
</g>
<g>
<title>2025-02-16: 0 contributions</title>
<rect x="154" y="24" width="12" height="12" rx="3" fill="#DCE7E5" />
</g>
<g>
<title>2025-02-17: 0 contributions</title>
<rect x="154" y="38" width="12" height="12" rx="3" fill="#DCE7E5" />
</g>
<g>
<title>2025-02-18: 0 contributions</title>
<rect x="154" y="52" width="12" height="12" rx="3" fill="#DCE7E5" />
</g>
<g>
<title>2025-02-19: 0 contributions</title>
<rect x="154" y="66" width="12" height="12" rx="3" fill="#DCE7E5" />
</g>
<g>
<title>2025-02-20: 0 contributions</title>
<rect x="154" y="80" width="12" height="12" rx="3" fill="#DCE7E5" />
</g>
<g>
<title>2025-02-21: 0 contributions</title>
<rect x="154" y="94" width="12" height="12" rx="3" fill="#DCE7E5" />
</g>
<g>
<title>2025-02-22: 0 contributions</title>
<rect x="154" y="108" width="12" height="12" rx="3" fill="#DCE7E5" />
</g>
<g>
<title>2025-02-23: 0 contributions</title>
<rect x="168" y="24" width="12" height="12" rx="3" fill="#DCE7E5" />
</g>
<g>
<title>2025-02-24: 0 contributions</title>
<rect x="168" y="38" width="12" height="12" rx="3" fill="#DCE7E5" />
</g>
<g>
<title>2025-02-25: 0 contributions</title>
<rect x="168" y="52" width="12" height="12" rx="3" fill="#DCE7E5" />
</g>
<g>
<title>2025-02-26: 0 contributions</title>
<rect x="168" y="66" width="12" height="12" rx="3" fill="#DCE7E5" />
</g>
<g>
<title>2025-02-27: 0 contributions</title>
<rect x="168" y="80" width="12" height="12" rx="3" fill="#DCE7E5" />
</g>
<g>
<title>2025-02-28: 0 contributions</title>
<rect x="168" y="94" width="12" height="12" rx="3" fill="#DCE7E5" />
</g>
<g>
<title>2025-03-01: 0 contributions</title>
<rect x="168" y="108" width="12" height="12" rx="3" fill="#DCE7E5" />
</g>
<g>
<title>2025-03-02: 0 contributions</title>
<rect x="182" y="24" width="12" height="12" rx="3" fill="#DCE7E5" />
</g>
<g>
<title>2025-03-03: 0 contributions</title>
<rect x="182" y="38" width="12" height="12" rx="3" fill="#DCE7E5" />
</g>
<g>
<title>2025-03-04: 0 contributions</title>
<rect x="182" y="52" width="12" height="12" rx="3" fill="#DCE7E5" />
</g>
<g>
<title>2025-03-05: 0 contributions</title>
<rect x="182" y="66" width="12" height="12" rx="3" fill="#DCE7E5" />
</g>
<g>
<title>2025-03-06: 0 contributions</title>
<rect x="182" y="80" width="12" height="12" rx="3" fill="#DCE7E5" />
</g>
<g>
<title>2025-03-07: 0 contributions</title>
<rect x="182" y="94" width="12" height="12" rx="3" fill="#DCE7E5" />
</g>
<g>
<title>2025-03-08: 0 contributions</title>
<rect x="182" y="108" width="12" height="12" rx="3" fill="#DCE7E5" />
</g>
<g>
<title>2025-03-09: 0 contributions</title>
<rect x="196" y="24" width="12" height="12" rx="3" fill="#DCE7E5" />
</g>
<g>
<title>2025-03-10: 0 contributions</title>
<rect x="196" y="38" width="12" height="12" rx="3" fill="#DCE7E5" />
</g>
<g>
<title>2025-03-11: 0 contributions</title>
<rect x="196" y="52" width="12" height="12" rx="3" fill="#DCE7E5" />
</g>
<g>
<title>2025-03-12: 0 contributions</title>
<rect x="196" y="66" width="12" height="12" rx="3" fill="#DCE7E5" />
</g>
<g>
<title>2025-03-13: 0 contributions</title>
<rect x="196" y="80" width="12" height="12" rx="3" fill="#DCE7E5" />
</g>
<g>
<title>2025-03-14: 0 contributions</title>
<rect x="196" y="94" width="12" height="12" rx="3" fill="#DCE7E5" />
</g>
<g>
<title>2025-03-15: 0 contributions</title>
<rect x="196" y="108" width="12" height="12" rx="3" fill="#DCE7E5" />
</g>
<g>
<title>2025-03-16: 0 contributions</title>
<rect x="210" y="24" width="12" height="12" rx="3" fill="#DCE7E5" />
</g>
<g>
<title>2025-03-17: 0 contributions</title>
<rect x="210" y="38" width="12" height="12" rx="3" fill="#DCE7E5" />
</g>
<g>
<title>2025-03-18: 0 contributions</title>
<rect x="210" y="52" width="12" height="12" rx="3" fill="#DCE7E5" />
</g>
<g>
<title>2025-03-19: 0 contributions</title>
<rect x="210" y="66" width="12" height="12" rx="3" fill="#DCE7E5" />
</g>
<g>
<title>2025-03-20: 0 contributions</title>
<rect x="210" y="80" width="12" height="12" rx="3" fill="#DCE7E5" />
</g>
<g>
<title>2025-03-21: 0 contributions</title>
<rect x="210" y="94" width="12" height="12" rx="3" fill="#DCE7E5" />
</g>
<g>
<title>2025-03-22: 0 contributions</title>
<rect x="210" y="108" width="12" height="12" rx="3" fill="#DCE7E5" />
</g>
<g>
<title>2025-03-23: 0 contributions</title>
<rect x="224" y="24" width="12" height="12" rx="3" fill="#DCE7E5" />
</g>
<g>
<title>2025-03-24: 0 contributions</title>
<rect x="224" y="38" width="12" height="12" rx="3" fill="#DCE7E5" />
</g>
<g>
<title>2025-03-25: 0 contributions</title>
<rect x="224" y="52" width="12" height="12" rx="3" fill="#DCE7E5" />
</g>
<g>
<title>2025-03-26: 0 contributions</title>
<rect x="224" y="66" width="12" height="12" rx="3" fill="#DCE7E5" />
</g>
<g>
<title>2025-03-27: 0 contributions</title>
<rect x="224" y="80" width="12" height="12" rx="3" fill="#DCE7E5" />
</g>
<g>
<title>2025-03-28: 0 contributions</title>
<rect x="224" y="94" width="12" height="12" rx="3" fill="#DCE7E5" />
</g>
<g>
<title>2025-03-29: 0 contributions</title>
<rect x="224" y="108" width="12" height="12" rx="3" fill="#DCE7E5" />
</g>
<g>
<title>2025-03-30: 0 contributions</title>
<rect x="238" y="24" width="12" height="12" rx="3" fill="#DCE7E5" />
</g>
<g>
<title>2025-03-31: 0 contributions</title>
<rect x="238" y="38" width="12" height="12" rx="3" fill="#DCE7E5" />
</g>
<g>
<title>2025-04-01: 0 contributions</title>
<rect x="238" y="52" width="12" height="12" rx="3" fill="#DCE7E5" />
</g>
<g>
<title>2025-04-02: 0 contributions</title>
<rect x="238" y="66" width="12" height="12" rx="3" fill="#DCE7E5" />
</g>
<g>
<title>2025-04-03: 0 contributions</title>
<rect x="238" y="80" width="12" height="12" rx="3" fill="#DCE7E5" />
</g>
<g>
<title>2025-04-04: 0 contributions</title>
<rect x="238" y="94" width="12" height="12" rx="3" fill="#DCE7E5" />
</g>
<g>
<title>2025-04-05: 0 contributions</title>
<rect x="238" y="108" width="12" height="12" rx="3" fill="#DCE7E5" />
</g>
<g>
<title>2025-04-06: 0 contributions</title>
<rect x="252" y="24" width="12" height="12" rx="3" fill="#DCE7E5" />
</g>
<g>
<title>2025-04-07: 0 contributions</title>
<rect x="252" y="38" width="12" height="12" rx="3" fill="#DCE7E5" />
</g>
<g>
<title>2025-04-08: 0 contributions</title>
<rect x="252" y="52" width="12" height="12" rx="3" fill="#DCE7E5" />
</g>
<g>
<title>2025-04-09: 0 contributions</title>
<rect x="252" y="66" width="12" height="12" rx="3" fill="#DCE7E5" />
</g>
<g>
<title>2025-04-10: 0 contributions</title>
<rect x="252" y="80" width="12" height="12" rx="3" fill="#DCE7E5" />
</g>
<g>
<title>2025-04-11: 0 contributions</title>
<rect x="252" y="94" width="12" height="12" rx="3" fill="#DCE7E5" />
</g>
<g>
<title>2025-04-12: 0 contributions</title>
<rect x="252" y="108" width="12" height="12" rx="3" fill="#DCE7E5" />
</g>
<g>
<title>2025-04-13: 4 contributions</title>
<rect x="266" y="24" width="12" height="12" rx="3" fill="#6FC8BE" />
</g>
<g>
<title>2025-04-14: 1 contribution</title>
<rect x="266" y="38" width="12" height="12" rx="3" fill="#A9DDD4" />
</g>
<g>
<title>2025-04-15: 0 contributions</title>
<rect x="266" y="52" width="12" height="12" rx="3" fill="#DCE7E5" />
</g>
<g>
<title>2025-04-16: 0 contributions</title>
<rect x="266" y="66" width="12" height="12" rx="3" fill="#DCE7E5" />
</g>
<g>
<title>2025-04-17: 5 contributions</title>
<rect x="266" y="80" width="12" height="12" rx="3" fill="#6FC8BE" />
</g>
<g>
<title>2025-04-18: 2 contributions</title>
<rect x="266" y="94" width="12" height="12" rx="3" fill="#A9DDD4" />
</g>
<g>
<title>2025-04-19: 0 contributions</title>
<rect x="266" y="108" width="12" height="12" rx="3" fill="#DCE7E5" />
</g>
<g>
<title>2025-04-20: 0 contributions</title>
<rect x="280" y="24" width="12" height="12" rx="3" fill="#DCE7E5" />
</g>
<g>
<title>2025-04-21: 4 contributions</title>
<rect x="280" y="38" width="12" height="12" rx="3" fill="#6FC8BE" />
</g>
<g>
<title>2025-04-22: 2 contributions</title>
<rect x="280" y="52" width="12" height="12" rx="3" fill="#A9DDD4" />
</g>
<g>
<title>2025-04-23: 0 contributions</title>
<rect x="280" y="66" width="12" height="12" rx="3" fill="#DCE7E5" />
</g>
<g>
<title>2025-04-24: 0 contributions</title>
<rect x="280" y="80" width="12" height="12" rx="3" fill="#DCE7E5" />
</g>
<g>
<title>2025-04-25: 1 contribution</title>
<rect x="280" y="94" width="12" height="12" rx="3" fill="#A9DDD4" />
</g>
<g>
<title>2025-04-26: 0 contributions</title>
<rect x="280" y="108" width="12" height="12" rx="3" fill="#DCE7E5" />
</g>
<g>
<title>2025-04-27: 1 contribution</title>
<rect x="294" y="24" width="12" height="12" rx="3" fill="#A9DDD4" />
</g>
<g>
<title>2025-04-28: 3 contributions</title>
<rect x="294" y="38" width="12" height="12" rx="3" fill="#6FC8BE" />
</g>
<g>
<title>2025-04-29: 0 contributions</title>
<rect x="294" y="52" width="12" height="12" rx="3" fill="#DCE7E5" />
</g>
<g>
<title>2025-04-30: 0 contributions</title>
<rect x="294" y="66" width="12" height="12" rx="3" fill="#DCE7E5" />
</g>
<g>
<title>2025-05-01: 2 contributions</title>
<rect x="294" y="80" width="12" height="12" rx="3" fill="#A9DDD4" />
</g>
<g>
<title>2025-05-02: 0 contributions</title>
<rect x="294" y="94" width="12" height="12" rx="3" fill="#DCE7E5" />
</g>
<g>
<title>2025-05-03: 0 contributions</title>
<rect x="294" y="108" width="12" height="12" rx="3" fill="#DCE7E5" />
</g>
<g>
<title>2025-05-04: 0 contributions</title>
<rect x="308" y="24" width="12" height="12" rx="3" fill="#DCE7E5" />
</g>
<g>
<title>2025-05-05: 0 contributions</title>
<rect x="308" y="38" width="12" height="12" rx="3" fill="#DCE7E5" />
</g>
<g>
<title>2025-05-06: 0 contributions</title>
<rect x="308" y="52" width="12" height="12" rx="3" fill="#DCE7E5" />
</g>
<g>
<title>2025-05-07: 0 contributions</title>
<rect x="308" y="66" width="12" height="12" rx="3" fill="#DCE7E5" />
</g>
<g>
<title>2025-05-08: 2 contributions</title>
<rect x="308" y="80" width="12" height="12" rx="3" fill="#A9DDD4" />
</g>
<g>
<title>2025-05-09: 0 contributions</title>
<rect x="308" y="94" width="12" height="12" rx="3" fill="#DCE7E5" />
</g>
<g>
<title>2025-05-10: 1 contribution</title>
<rect x="308" y="108" width="12" height="12" rx="3" fill="#A9DDD4" />
</g>
<g>
<title>2025-05-11: 0 contributions</title>
<rect x="322" y="24" width="12" height="12" rx="3" fill="#DCE7E5" />
</g>
<g>
<title>2025-05-12: 1 contribution</title>
<rect x="322" y="38" width="12" height="12" rx="3" fill="#A9DDD4" />
</g>
<g>
<title>2025-05-13: 0 contributions</title>
<rect x="322" y="52" width="12" height="12" rx="3" fill="#DCE7E5" />
</g>
<g>
<title>2025-05-14: 0 contributions</title>
<rect x="322" y="66" width="12" height="12" rx="3" fill="#DCE7E5" />
</g>
<g>
<title>2025-05-15: 2 contributions</title>
<rect x="322" y="80" width="12" height="12" rx="3" fill="#A9DDD4" />
</g>
<g>
<title>2025-05-16: 0 contributions</title>
<rect x="322" y="94" width="12" height="12" rx="3" fill="#DCE7E5" />
</g>
<g>
<title>2025-05-17: 0 contributions</title>
<rect x="322" y="108" width="12" height="12" rx="3" fill="#DCE7E5" />
</g>
<g>
<title>2025-05-18: 0 contributions</title>
<rect x="336" y="24" width="12" height="12" rx="3" fill="#DCE7E5" />
</g>
<g>
<title>2025-05-19: 0 contributions</title>
<rect x="336" y="38" width="12" height="12" rx="3" fill="#DCE7E5" />
</g>
<g>
<title>2025-05-20: 1 contribution</title>
<rect x="336" y="52" width="12" height="12" rx="3" fill="#A9DDD4" />
</g>
<g>
<title>2025-05-21: 1 contribution</title>
<rect x="336" y="66" width="12" height="12" rx="3" fill="#A9DDD4" />
</g>
<g>
<title>2025-05-22: 0 contributions</title>
<rect x="336" y="80" width="12" height="12" rx="3" fill="#DCE7E5" />
</g>
<g>
<title>2025-05-23: 1 contribution</title>
<rect x="336" y="94" width="12" height="12" rx="3" fill="#A9DDD4" />
</g>
<g>
<title>2025-05-24: 0 contributions</title>
<rect x="336" y="108" width="12" height="12" rx="3" fill="#DCE7E5" />
</g>
<g>
<title>2025-05-25: 0 contributions</title>
<rect x="350" y="24" width="12" height="12" rx="3" fill="#DCE7E5" />
</g>
<g>
<title>2025-05-26: 0 contributions</title>
<rect x="350" y="38" width="12" height="12" rx="3" fill="#DCE7E5" />
</g>
<g>
<title>2025-05-27: 0 contributions</title>
<rect x="350" y="52" width="12" height="12" rx="3" fill="#DCE7E5" />
</g>
<g>
<title>2025-05-28: 0 contributions</title>
<rect x="350" y="66" width="12" height="12" rx="3" fill="#DCE7E5" />
</g>
<g>
<title>2025-05-29: 0 contributions</title>
<rect x="350" y="80" width="12" height="12" rx="3" fill="#DCE7E5" />
</g>
<g>
<title>2025-05-30: 0 contributions</title>
<rect x="350" y="94" width="12" height="12" rx="3" fill="#DCE7E5" />
</g>
<g>
<title>2025-05-31: 0 contributions</title>
<rect x="350" y="108" width="12" height="12" rx="3" fill="#DCE7E5" />
</g>
<g>
<title>2025-06-01: 0 contributions</title>
<rect x="364" y="24" width="12" height="12" rx="3" fill="#DCE7E5" />
</g>
<g>
<title>2025-06-02: 2 contributions</title>
<rect x="364" y="38" width="12" height="12" rx="3" fill="#A9DDD4" />
</g>
<g>
<title>2025-06-03: 0 contributions</title>
<rect x="364" y="52" width="12" height="12" rx="3" fill="#DCE7E5" />
</g>
<g>
<title>2025-06-04: 1 contribution</title>
<rect x="364" y="66" width="12" height="12" rx="3" fill="#A9DDD4" />
</g>
<g>
<title>2025-06-05: 1 contribution</title>
<rect x="364" y="80" width="12" height="12" rx="3" fill="#A9DDD4" />
</g>
<g>
<title>2025-06-06: 0 contributions</title>
<rect x="364" y="94" width="12" height="12" rx="3" fill="#DCE7E5" />
</g>
<g>
<title>2025-06-07: 0 contributions</title>
<rect x="364" y="108" width="12" height="12" rx="3" fill="#DCE7E5" />
</g>
<g>
<title>2025-06-08: 0 contributions</title>
<rect x="378" y="24" width="12" height="12" rx="3" fill="#DCE7E5" />
</g>
<g>
<title>2025-06-09: 1 contribution</title>
<rect x="378" y="38" width="12" height="12" rx="3" fill="#A9DDD4" />
</g>
<g>
<title>2025-06-10: 2 contributions</title>
<rect x="378" y="52" width="12" height="12" rx="3" fill="#A9DDD4" />
</g>
<g>
<title>2025-06-11: 0 contributions</title>
<rect x="378" y="66" width="12" height="12" rx="3" fill="#DCE7E5" />
</g>
<g>
<title>2025-06-12: 1 contribution</title>
<rect x="378" y="80" width="12" height="12" rx="3" fill="#A9DDD4" />
</g>
<g>
<title>2025-06-13: 0 contributions</title>
<rect x="378" y="94" width="12" height="12" rx="3" fill="#DCE7E5" />
</g>
<g>
<title>2025-06-14: 0 contributions</title>
<rect x="378" y="108" width="12" height="12" rx="3" fill="#DCE7E5" />
</g>
<g>
<title>2025-06-15: 0 contributions</title>
<rect x="392" y="24" width="12" height="12" rx="3" fill="#DCE7E5" />
</g>
<g>
<title>2025-06-16: 0 contributions</title>
<rect x="392" y="38" width="12" height="12" rx="3" fill="#DCE7E5" />
</g>
<g>
<title>2025-06-17: 0 contributions</title>
<rect x="392" y="52" width="12" height="12" rx="3" fill="#DCE7E5" />
</g>
<g>
<title>2025-06-18: 0 contributions</title>
<rect x="392" y="66" width="12" height="12" rx="3" fill="#DCE7E5" />
</g>
<g>
<title>2025-06-19: 0 contributions</title>
<rect x="392" y="80" width="12" height="12" rx="3" fill="#DCE7E5" />
</g>
<g>
<title>2025-06-20: 0 contributions</title>
<rect x="392" y="94" width="12" height="12" rx="3" fill="#DCE7E5" />
</g>
<g>
<title>2025-06-21: 0 contributions</title>
<rect x="392" y="108" width="12" height="12" rx="3" fill="#DCE7E5" />
</g>
<g>
<title>2025-06-22: 0 contributions</title>
<rect x="406" y="24" width="12" height="12" rx="3" fill="#DCE7E5" />
</g>
<g>
<title>2025-06-23: 0 contributions</title>
<rect x="406" y="38" width="12" height="12" rx="3" fill="#DCE7E5" />
</g>
<g>
<title>2025-06-24: 0 contributions</title>
<rect x="406" y="52" width="12" height="12" rx="3" fill="#DCE7E5" />
</g>
<g>
<title>2025-06-25: 0 contributions</title>
<rect x="406" y="66" width="12" height="12" rx="3" fill="#DCE7E5" />
</g>
<g>
<title>2025-06-26: 0 contributions</title>
<rect x="406" y="80" width="12" height="12" rx="3" fill="#DCE7E5" />
</g>
<g>
<title>2025-06-27: 0 contributions</title>
<rect x="406" y="94" width="12" height="12" rx="3" fill="#DCE7E5" />
</g>
<g>
<title>2025-06-28: 0 contributions</title>
<rect x="406" y="108" width="12" height="12" rx="3" fill="#DCE7E5" />
</g>
<g>
<title>2025-06-29: 0 contributions</title>
<rect x="420" y="24" width="12" height="12" rx="3" fill="#DCE7E5" />
</g>
<g>
<title>2025-06-30: 0 contributions</title>
<rect x="420" y="38" width="12" height="12" rx="3" fill="#DCE7E5" />
</g>
<g>
<title>2025-07-01: 0 contributions</title>
<rect x="420" y="52" width="12" height="12" rx="3" fill="#DCE7E5" />
</g>
<g>
<title>2025-07-02: 0 contributions</title>
<rect x="420" y="66" width="12" height="12" rx="3" fill="#DCE7E5" />
</g>
<g>
<title>2025-07-03: 0 contributions</title>
<rect x="420" y="80" width="12" height="12" rx="3" fill="#DCE7E5" />
</g>
<g>
<title>2025-07-04: 0 contributions</title>
<rect x="420" y="94" width="12" height="12" rx="3" fill="#DCE7E5" />
</g>
<g>
<title>2025-07-05: 0 contributions</title>
<rect x="420" y="108" width="12" height="12" rx="3" fill="#DCE7E5" />
</g>
<g>
<title>2025-07-06: 0 contributions</title>
<rect x="434" y="24" width="12" height="12" rx="3" fill="#DCE7E5" />
</g>
<g>
<title>2025-07-07: 0 contributions</title>
<rect x="434" y="38" width="12" height="12" rx="3" fill="#DCE7E5" />
</g>
<g>
<title>2025-07-08: 0 contributions</title>
<rect x="434" y="52" width="12" height="12" rx="3" fill="#DCE7E5" />
</g>
<g>
<title>2025-07-09: 0 contributions</title>
<rect x="434" y="66" width="12" height="12" rx="3" fill="#DCE7E5" />
</g>
<g>
<title>2025-07-10: 0 contributions</title>
<rect x="434" y="80" width="12" height="12" rx="3" fill="#DCE7E5" />
</g>
<g>
<title>2025-07-11: 0 contributions</title>
<rect x="434" y="94" width="12" height="12" rx="3" fill="#DCE7E5" />
</g>
<g>
<title>2025-07-12: 0 contributions</title>
<rect x="434" y="108" width="12" height="12" rx="3" fill="#DCE7E5" />
</g>
<g>
<title>2025-07-13: 0 contributions</title>
<rect x="448" y="24" width="12" height="12" rx="3" fill="#DCE7E5" />
</g>
<g>
<title>2025-07-14: 0 contributions</title>
<rect x="448" y="38" width="12" height="12" rx="3" fill="#DCE7E5" />
</g>
<g>
<title>2025-07-15: 0 contributions</title>
<rect x="448" y="52" width="12" height="12" rx="3" fill="#DCE7E5" />
</g>
<g>
<title>2025-07-16: 0 contributions</title>
<rect x="448" y="66" width="12" height="12" rx="3" fill="#DCE7E5" />
</g>
<g>
<title>2025-07-17: 0 contributions</title>
<rect x="448" y="80" width="12" height="12" rx="3" fill="#DCE7E5" />
</g>
<g>
<title>2025-07-18: 0 contributions</title>
<rect x="448" y="94" width="12" height="12" rx="3" fill="#DCE7E5" />
</g>
<g>
<title>2025-07-19: 0 contributions</title>
<rect x="448" y="108" width="12" height="12" rx="3" fill="#DCE7E5" />
</g>
<g>
<title>2025-07-20: 0 contributions</title>
<rect x="462" y="24" width="12" height="12" rx="3" fill="#DCE7E5" />
</g>
<g>
<title>2025-07-21: 0 contributions</title>
<rect x="462" y="38" width="12" height="12" rx="3" fill="#DCE7E5" />
</g>
<g>
<title>2025-07-22: 0 contributions</title>
<rect x="462" y="52" width="12" height="12" rx="3" fill="#DCE7E5" />
</g>
<g>
<title>2025-07-23: 0 contributions</title>
<rect x="462" y="66" width="12" height="12" rx="3" fill="#DCE7E5" />
</g>
<g>
<title>2025-07-24: 0 contributions</title>
<rect x="462" y="80" width="12" height="12" rx="3" fill="#DCE7E5" />
</g>
<g>
<title>2025-07-25: 0 contributions</title>
<rect x="462" y="94" width="12" height="12" rx="3" fill="#DCE7E5" />
</g>
<g>
<title>2025-07-26: 0 contributions</title>
<rect x="462" y="108" width="12" height="12" rx="3" fill="#DCE7E5" />
</g>
<g>
<title>2025-07-27: 0 contributions</title>
<rect x="476" y="24" width="12" height="12" rx="3" fill="#DCE7E5" />
</g>
<g>
<title>2025-07-28: 0 contributions</title>
<rect x="476" y="38" width="12" height="12" rx="3" fill="#DCE7E5" />
</g>
<g>
<title>2025-07-29: 0 contributions</title>
<rect x="476" y="52" width="12" height="12" rx="3" fill="#DCE7E5" />
</g>
<g>
<title>2025-07-30: 0 contributions</title>
<rect x="476" y="66" width="12" height="12" rx="3" fill="#DCE7E5" />
</g>
<g>
<title>2025-07-31: 0 contributions</title>
<rect x="476" y="80" width="12" height="12" rx="3" fill="#DCE7E5" />
</g>
<g>
<title>2025-08-01: 0 contributions</title>
<rect x="476" y="94" width="12" height="12" rx="3" fill="#DCE7E5" />
</g>
<g>
<title>2025-08-02: 0 contributions</title>
<rect x="476" y="108" width="12" height="12" rx="3" fill="#DCE7E5" />
</g>
<g>
<title>2025-08-03: 0 contributions</title>
<rect x="490" y="24" width="12" height="12" rx="3" fill="#DCE7E5" />
</g>
<g>
<title>2025-08-04: 0 contributions</title>
<rect x="490" y="38" width="12" height="12" rx="3" fill="#DCE7E5" />
</g>
<g>
<title>2025-08-05: 0 contributions</title>
<rect x="490" y="52" width="12" height="12" rx="3" fill="#DCE7E5" />
</g>
<g>
<title>2025-08-06: 0 contributions</title>
<rect x="490" y="66" width="12" height="12" rx="3" fill="#DCE7E5" />
</g>
<g>
<title>2025-08-07: 0 contributions</title>
<rect x="490" y="80" width="12" height="12" rx="3" fill="#DCE7E5" />
</g>
<g>
<title>2025-08-08: 0 contributions</title>
<rect x="490" y="94" width="12" height="12" rx="3" fill="#DCE7E5" />
</g>
<g>
<title>2025-08-09: 0 contributions</title>
<rect x="490" y="108" width="12" height="12" rx="3" fill="#DCE7E5" />
</g>
<g>
<title>2025-08-10: 0 contributions</title>
<rect x="504" y="24" width="12" height="12" rx="3" fill="#DCE7E5" />
</g>
<g>
<title>2025-08-11: 0 contributions</title>
<rect x="504" y="38" width="12" height="12" rx="3" fill="#DCE7E5" />
</g>
<g>
<title>2025-08-12: 0 contributions</title>
<rect x="504" y="52" width="12" height="12" rx="3" fill="#DCE7E5" />
</g>
<g>
<title>2025-08-13: 0 contributions</title>
<rect x="504" y="66" width="12" height="12" rx="3" fill="#DCE7E5" />
</g>
<g>
<title>2025-08-14: 0 contributions</title>
<rect x="504" y="80" width="12" height="12" rx="3" fill="#DCE7E5" />
</g>
<g>
<title>2025-08-15: 0 contributions</title>
<rect x="504" y="94" width="12" height="12" rx="3" fill="#DCE7E5" />
</g>
<g>
<title>2025-08-16: 0 contributions</title>
<rect x="504" y="108" width="12" height="12" rx="3" fill="#DCE7E5" />
</g>
<g>
<title>2025-08-17: 0 contributions</title>
<rect x="518" y="24" width="12" height="12" rx="3" fill="#DCE7E5" />
</g>
<g>
<title>2025-08-18: 0 contributions</title>
<rect x="518" y="38" width="12" height="12" rx="3" fill="#DCE7E5" />
</g>
<g>
<title>2025-08-19: 0 contributions</title>
<rect x="518" y="52" width="12" height="12" rx="3" fill="#DCE7E5" />
</g>
<g>
<title>2025-08-20: 0 contributions</title>
<rect x="518" y="66" width="12" height="12" rx="3" fill="#DCE7E5" />
</g>
<g>
<title>2025-08-21: 0 contributions</title>
<rect x="518" y="80" width="12" height="12" rx="3" fill="#DCE7E5" />
</g>
<g>
<title>2025-08-22: 0 contributions</title>
<rect x="518" y="94" width="12" height="12" rx="3" fill="#DCE7E5" />
</g>
<g>
<title>2025-08-23: 0 contributions</title>
<rect x="518" y="108" width="12" height="12" rx="3" fill="#DCE7E5" />
</g>
<g>
<title>2025-08-24: 0 contributions</title>
<rect x="532" y="24" width="12" height="12" rx="3" fill="#DCE7E5" />
</g>
<g>
<title>2025-08-25: 0 contributions</title>
<rect x="532" y="38" width="12" height="12" rx="3" fill="#DCE7E5" />
</g>
<g>
<title>2025-08-26: 0 contributions</title>
<rect x="532" y="52" width="12" height="12" rx="3" fill="#DCE7E5" />
</g>
<g>
<title>2025-08-27: 0 contributions</title>
<rect x="532" y="66" width="12" height="12" rx="3" fill="#DCE7E5" />
</g>
<g>
<title>2025-08-28: 0 contributions</title>
<rect x="532" y="80" width="12" height="12" rx="3" fill="#DCE7E5" />
</g>
<g>
<title>2025-08-29: 0 contributions</title>
<rect x="532" y="94" width="12" height="12" rx="3" fill="#DCE7E5" />
</g>
<g>
<title>2025-08-30: 0 contributions</title>
<rect x="532" y="108" width="12" height="12" rx="3" fill="#DCE7E5" />
</g>
<g>
<title>2025-08-31: 0 contributions</title>
<rect x="546" y="24" width="12" height="12" rx="3" fill="#DCE7E5" />
</g>
<g>
<title>2025-09-01: 0 contributions</title>
<rect x="546" y="38" width="12" height="12" rx="3" fill="#DCE7E5" />
</g>
<g>
<title>2025-09-02: 0 contributions</title>
<rect x="546" y="52" width="12" height="12" rx="3" fill="#DCE7E5" />
</g>
<g>
<title>2025-09-03: 0 contributions</title>
<rect x="546" y="66" width="12" height="12" rx="3" fill="#DCE7E5" />
</g>
<g>
<title>2025-09-04: 0 contributions</title>
<rect x="546" y="80" width="12" height="12" rx="3" fill="#DCE7E5" />
</g>
<g>
<title>2025-09-05: 0 contributions</title>
<rect x="546" y="94" width="12" height="12" rx="3" fill="#DCE7E5" />
</g>
<g>
<title>2025-09-06: 0 contributions</title>
<rect x="546" y="108" width="12" height="12" rx="3" fill="#DCE7E5" />
</g>
<g>
<title>2025-09-07: 0 contributions</title>
<rect x="560" y="24" width="12" height="12" rx="3" fill="#DCE7E5" />
</g>
<g>
<title>2025-09-08: 0 contributions</title>
<rect x="560" y="38" width="12" height="12" rx="3" fill="#DCE7E5" />
</g>
<g>
<title>2025-09-09: 0 contributions</title>
<rect x="560" y="52" width="12" height="12" rx="3" fill="#DCE7E5" />
</g>
<g>
<title>2025-09-10: 0 contributions</title>
<rect x="560" y="66" width="12" height="12" rx="3" fill="#DCE7E5" />
</g>
<g>
<title>2025-09-11: 0 contributions</title>
<rect x="560" y="80" width="12" height="12" rx="3" fill="#DCE7E5" />
</g>
<g>
<title>2025-09-12: 0 contributions</title>
<rect x="560" y="94" width="12" height="12" rx="3" fill="#DCE7E5" />
</g>
<g>
<title>2025-09-13: 0 contributions</title>
<rect x="560" y="108" width="12" height="12" rx="3" fill="#DCE7E5" />
</g>
<g>
<title>2025-09-14: 0 contributions</title>
<rect x="574" y="24" width="12" height="12" rx="3" fill="#DCE7E5" />
</g>
<g>
<title>2025-09-15: 0 contributions</title>
<rect x="574" y="38" width="12" height="12" rx="3" fill="#DCE7E5" />
</g>
<g>
<title>2025-09-16: 0 contributions</title>
<rect x="574" y="52" width="12" height="12" rx="3" fill="#DCE7E5" />
</g>
<g>
<title>2025-09-17: 0 contributions</title>
<rect x="574" y="66" width="12" height="12" rx="3" fill="#DCE7E5" />
</g>
<g>
<title>2025-09-18: 0 contributions</title>
<rect x="574" y="80" width="12" height="12" rx="3" fill="#DCE7E5" />
</g>
<g>
<title>2025-09-19: 0 contributions</title>
<rect x="574" y="94" width="12" height="12" rx="3" fill="#DCE7E5" />
</g>
<g>
<title>2025-09-20: 0 contributions</title>
<rect x="574" y="108" width="12" height="12" rx="3" fill="#DCE7E5" />
</g>
<g>
<title>2025-09-21: 0 contributions</title>
<rect x="588" y="24" width="12" height="12" rx="3" fill="#DCE7E5" />
</g>
<g>
<title>2025-09-22: 0 contributions</title>
<rect x="588" y="38" width="12" height="12" rx="3" fill="#DCE7E5" />
</g>
<g>
<title>2025-09-23: 0 contributions</title>
<rect x="588" y="52" width="12" height="12" rx="3" fill="#DCE7E5" />
</g>
<g>
<title>2025-09-24: 0 contributions</title>
<rect x="588" y="66" width="12" height="12" rx="3" fill="#DCE7E5" />
</g>
<g>
<title>2025-09-25: 0 contributions</title>
<rect x="588" y="80" width="12" height="12" rx="3" fill="#DCE7E5" />
</g>
<g>
<title>2025-09-26: 0 contributions</title>
<rect x="588" y="94" width="12" height="12" rx="3" fill="#DCE7E5" />
</g>
<g>
<title>2025-09-27: 0 contributions</title>
<rect x="588" y="108" width="12" height="12" rx="3" fill="#DCE7E5" />
</g>
<g>
<title>2025-09-28: 0 contributions</title>
<rect x="602" y="24" width="12" height="12" rx="3" fill="#DCE7E5" />
</g>
<g>
<title>2025-09-29: 0 contributions</title>
<rect x="602" y="38" width="12" height="12" rx="3" fill="#DCE7E5" />
</g>
<g>
<title>2025-09-30: 0 contributions</title>
<rect x="602" y="52" width="12" height="12" rx="3" fill="#DCE7E5" />
</g>
<g>
<title>2025-10-01: 0 contributions</title>
<rect x="602" y="66" width="12" height="12" rx="3" fill="#DCE7E5" />
</g>
<g>
<title>2025-10-02: 0 contributions</title>
<rect x="602" y="80" width="12" height="12" rx="3" fill="#DCE7E5" />
</g>
<g>
<title>2025-10-03: 0 contributions</title>
<rect x="602" y="94" width="12" height="12" rx="3" fill="#DCE7E5" />
</g>
<g>
<title>2025-10-04: 0 contributions</title>
<rect x="602" y="108" width="12" height="12" rx="3" fill="#DCE7E5" />
</g>
<g>
<title>2025-10-05: 0 contributions</title>
<rect x="616" y="24" width="12" height="12" rx="3" fill="#DCE7E5" />
</g>
<g>
<title>2025-10-06: 2 contributions</title>
<rect x="616" y="38" width="12" height="12" rx="3" fill="#A9DDD4" />
</g>
<g>
<title>2025-10-07: 8 contributions</title>
<rect x="616" y="52" width="12" height="12" rx="3" fill="#35B1A1" />
</g>
<g>
<title>2025-10-08: 0 contributions</title>
<rect x="616" y="66" width="12" height="12" rx="3" fill="#DCE7E5" />
</g>
<g>
<title>2025-10-09: 0 contributions</title>
<rect x="616" y="80" width="12" height="12" rx="3" fill="#DCE7E5" />
</g>
<g>
<title>2025-10-10: 7 contributions</title>
<rect x="616" y="94" width="12" height="12" rx="3" fill="#35B1A1" />
</g>
<g>
<title>2025-10-11: 1 contribution</title>
<rect x="616" y="108" width="12" height="12" rx="3" fill="#A9DDD4" />
</g>
<g>
<title>2025-10-12: 12 contributions</title>
<rect x="630" y="24" width="12" height="12" rx="3" fill="#00897B" />
</g>
<g>
<title>2025-10-13: 5 contributions</title>
<rect x="630" y="38" width="12" height="12" rx="3" fill="#6FC8BE" />
</g>
<g>
<title>2025-10-14: 9 contributions</title>
<rect x="630" y="52" width="12" height="12" rx="3" fill="#35B1A1" />
</g>
<g>
<title>2025-10-15: 1 contribution</title>
<rect x="630" y="66" width="12" height="12" rx="3" fill="#A9DDD4" />
</g>
<g>
<title>2025-10-16: 18 contributions</title>
<rect x="630" y="80" width="12" height="12" rx="3" fill="#00897B" />
</g>
<g>
<title>2025-10-17: 4 contributions</title>
<rect x="630" y="94" width="12" height="12" rx="3" fill="#6FC8BE" />
</g>
<g>
<title>2025-10-18: 3 contributions</title>
<rect x="630" y="108" width="12" height="12" rx="3" fill="#6FC8BE" />
</g>
<g>
<title>2025-10-19: 1 contribution</title>
<rect x="644" y="24" width="12" height="12" rx="3" fill="#A9DDD4" />
</g>
<g>
<title>2025-10-20: 6 contributions</title>
<rect x="644" y="38" width="12" height="12" rx="3" fill="#35B1A1" />
</g>
<g>
<title>2025-10-21: 2 contributions</title>
<rect x="644" y="52" width="12" height="12" rx="3" fill="#A9DDD4" />
</g>
<g>
<title>2025-10-22: 0 contributions</title>
<rect x="644" y="66" width="12" height="12" rx="3" fill="#DCE7E5" />
</g>
<g>
<title>2025-10-23: 1 contribution</title>
<rect x="644" y="80" width="12" height="12" rx="3" fill="#A9DDD4" />
</g>
<g>
<title>2025-10-24: 0 contributions</title>
<rect x="644" y="94" width="12" height="12" rx="3" fill="#DCE7E5" />
</g>
<g>
<title>2025-10-25: 0 contributions</title>
<rect x="644" y="108" width="12" height="12" rx="3" fill="#DCE7E5" />
</g>
<g>
<title>2025-10-26: 2 contributions</title>
<rect x="658" y="24" width="12" height="12" rx="3" fill="#A9DDD4" />
</g>
<g>
<title>2025-10-27: 0 contributions</title>
<rect x="658" y="38" width="12" height="12" rx="3" fill="#DCE7E5" />
</g>
<g>
<title>2025-10-28: 7 contributions</title>
<rect x="658" y="52" width="12" height="12" rx="3" fill="#35B1A1" />
</g>
<g>
<title>2025-10-29: 3 contributions</title>
<rect x="658" y="66" width="12" height="12" rx="3" fill="#6FC8BE" />
</g>
<g>
<title>2025-10-30: 2 contributions</title>
<rect x="658" y="80" width="12" height="12" rx="3" fill="#A9DDD4" />
</g>
<g>
<title>2025-10-31: 0 contributions</title>
<rect x="658" y="94" width="12" height="12" rx="3" fill="#DCE7E5" />
</g>
<g>
<title>2025-11-01: 0 contributions</title>
<rect x="658" y="108" width="12" height="12" rx="3" fill="#DCE7E5" />
</g>
<g>
<title>2025-11-02: 1 contribution</title>
<rect x="672" y="24" width="12" height="12" rx="3" fill="#A9DDD4" />
</g>
<g>
<title>2025-11-03: 2 contributions</title>
<rect x="672" y="38" width="12" height="12" rx="3" fill="#A9DDD4" />
</g>
<g>
<title>2025-11-04: 4 contributions</title>
<rect x="672" y="52" width="12" height="12" rx="3" fill="#6FC8BE" />
</g>
<g>
<title>2025-11-05: 6 contributions</title>
<rect x="672" y="66" width="12" height="12" rx="3" fill="#35B1A1" />
</g>
<g>
<title>2025-11-06: 5 contributions</title>
<rect x="672" y="80" width="12" height="12" rx="3" fill="#6FC8BE" />
</g>
<g>
<title>2025-11-07: 1 contribution</title>
<rect x="672" y="94" width="12" height="12" rx="3" fill="#A9DDD4" />
</g>
<g>
<title>2025-11-08: 1 contribution</title>
<rect x="672" y="108" width="12" height="12" rx="3" fill="#A9DDD4" />
</g>
<g>
<title>2025-11-09: 0 contributions</title>
<rect x="686" y="24" width="12" height="12" rx="3" fill="#DCE7E5" />
</g>
<g>
<title>2025-11-10: 5 contributions</title>
<rect x="686" y="38" width="12" height="12" rx="3" fill="#6FC8BE" />
</g>
<g>
<title>2025-11-11: 1 contribution</title>
<rect x="686" y="52" width="12" height="12" rx="3" fill="#A9DDD4" />
</g>
<g>
<title>2025-11-12: 5 contributions</title>
<rect x="686" y="66" width="12" height="12" rx="3" fill="#6FC8BE" />
</g>
<g>
<title>2025-11-13: 4 contributions</title>
<rect x="686" y="80" width="12" height="12" rx="3" fill="#6FC8BE" />
</g>
<g>
<title>2025-11-14: 5 contributions</title>
<rect x="686" y="94" width="12" height="12" rx="3" fill="#6FC8BE" />
</g>
<g>
<title>2025-11-15: 2 contributions</title>
<rect x="686" y="108" width="12" height="12" rx="3" fill="#A9DDD4" />
</g>
<g>
<title>2025-11-16: 3 contributions</title>
<rect x="700" y="24" width="12" height="12" rx="3" fill="#6FC8BE" />
</g>
<g>
<title>2025-11-17: 3 contributions</title>
<rect x="700" y="38" width="12" height="12" rx="3" fill="#6FC8BE" />
</g>
<g>
<title>2025-11-18: 1 contribution</title>
<rect x="700" y="52" width="12" height="12" rx="3" fill="#A9DDD4" />
</g>
<g>
<title>2025-11-19: 4 contributions</title>
<rect x="700" y="66" width="12" height="12" rx="3" fill="#6FC8BE" />
</g>
<g>
<title>2025-11-20: 8 contributions</title>
<rect x="700" y="80" width="12" height="12" rx="3" fill="#35B1A1" />
</g>
<g>
<title>2025-11-21: 0 contributions</title>
<rect x="700" y="94" width="12" height="12" rx="3" fill="#DCE7E5" />
</g>
<g>
<title>2025-11-22: 0 contributions</title>
<rect x="700" y="108" width="12" height="12" rx="3" fill="#DCE7E5" />
</g>
<g>
<title>2025-11-23: 1 contribution</title>
<rect x="714" y="24" width="12" height="12" rx="3" fill="#A9DDD4" />
</g>
<g>
<title>2025-11-24: 2 contributions</title>
<rect x="714" y="38" width="12" height="12" rx="3" fill="#A9DDD4" />
</g>
<g>
<title>2025-11-25: 6 contributions</title>
<rect x="714" y="52" width="12" height="12" rx="3" fill="#35B1A1" />
</g>
<g>
<title>2025-11-26: 2 contributions</title>
<rect x="714" y="66" width="12" height="12" rx="3" fill="#A9DDD4" />
</g>
<g>
<title>2025-11-27: 1 contribution</title>
<rect x="714" y="80" width="12" height="12" rx="3" fill="#A9DDD4" />
</g>
<g>
<title>2025-11-28: 3 contributions</title>
<rect x="714" y="94" width="12" height="12" rx="3" fill="#6FC8BE" />
</g>
<g>
<title>2025-11-29: 6 contributions</title>
<rect x="714" y="108" width="12" height="12" rx="3" fill="#35B1A1" />
</g>
<g>
<title>2025-11-30: 3 contributions</title>
<rect x="728" y="24" width="12" height="12" rx="3" fill="#6FC8BE" />
</g>
<g>
<title>2025-12-01: 2 contributions</title>
<rect x="728" y="38" width="12" height="12" rx="3" fill="#A9DDD4" />
</g>
<g>
<title>2025-12-02: 5 contributions</title>
<rect x="728" y="52" width="12" height="12" rx="3" fill="#6FC8BE" />
</g>
<g>
<title>2025-12-03: 2 contributions</title>
<rect x="728" y="66" width="12" height="12" rx="3" fill="#A9DDD4" />
</g>
<g>
<title>2025-12-04: 2 contributions</title>
<rect x="728" y="80" width="12" height="12" rx="3" fill="#A9DDD4" />
</g>
<g>
<title>2025-12-05: 5 contributions</title>
<rect x="728" y="94" width="12" height="12" rx="3" fill="#6FC8BE" />
</g>
<g>
<title>2025-12-06: 0 contributions</title>
<rect x="728" y="108" width="12" height="12" rx="3" fill="#DCE7E5" />
</g>
<g>
<title>2025-12-07: 2 contributions</title>
<rect x="742" y="24" width="12" height="12" rx="3" fill="#A9DDD4" />
</g>
<g>
<title>2025-12-08: 6 contributions</title>
<rect x="742" y="38" width="12" height="12" rx="3" fill="#35B1A1" />
</g>
<g>
<title>2025-12-09: 5 contributions</title>
<rect x="742" y="52" width="12" height="12" rx="3" fill="#6FC8BE" />
</g>
<g>
<title>2025-12-10: 1 contribution</title>
<rect x="742" y="66" width="12" height="12" rx="3" fill="#A9DDD4" />
</g>
<g>
<title>2025-12-11: 8 contributions</title>
<rect x="742" y="80" width="12" height="12" rx="3" fill="#35B1A1" />
</g>
<g>
<title>2025-12-12: 4 contributions</title>
<rect x="742" y="94" width="12" height="12" rx="3" fill="#6FC8BE" />
</g>
<g>
<title>2025-12-13: 0 contributions</title>
<rect x="742" y="108" width="12" height="12" rx="3" fill="#DCE7E5" />
</g>
<g>
<title>2025-12-14: 0 contributions</title>
<rect x="756" y="24" width="12" height="12" rx="3" fill="#DCE7E5" />
</g>
<g>
<title>2025-12-15: 0 contributions</title>
<rect x="756" y="38" width="12" height="12" rx="3" fill="#DCE7E5" />
</g>
<g>
<title>2025-12-16: 0 contributions</title>
<rect x="756" y="52" width="12" height="12" rx="3" fill="#DCE7E5" />
</g>
<g>
<title>2025-12-17: 0 contributions</title>
<rect x="756" y="66" width="12" height="12" rx="3" fill="#DCE7E5" />
</g>
<g>
<title>2025-12-18: 0 contributions</title>
<rect x="756" y="80" width="12" height="12" rx="3" fill="#DCE7E5" />
</g>
<text x="760" y="138" fill="#4C615D" font-family="ui-sans-serif, system-ui, -apple-system, Segoe UI, Roboto, Ubuntu, Cantarell, Noto Sans, Helvetica Neue, Arial" font-size="10" text-anchor="end" opacity="0.75">@evanniko1 — past year total: 263</text>
</svg>